<svg width="18" height="16" viewBox="0 0 18 16" fill="none" xmlns="http://www.w3.org/2000/svg">
<path d="M16.3668 1.84173C15.9412 1.4159 15.4358 1.0781 14.8796 0.847635C14.3234 0.617165 13.7272 0.498535 13.1252 0.498535C12.5231 0.498535 11.9269 0.617165 11.3707 0.847635C10.8145 1.0781 10.3091 1.4159 9.88352 1.84173L9.00022 2.72507L8.11685 1.84173C7.2571 0.981985 6.09104 0.498985 4.87518 0.498985C3.65932 0.498985 2.49326 0.981985 1.63351 1.84173C0.773771 2.70148 0.290771 3.86754 0.290771 5.0834C0.290771 6.29926 0.773771 7.46532 1.63351 8.32507L9.00022 15.6918L16.3668 8.32507C16.7927 7.89944 17.1305 7.39408 17.3609 6.83786C17.5914 6.28165 17.71 5.68547 17.71 5.0834C17.71 4.48133 17.5914 3.88515 17.3609 3.32894C17.1305 2.77272 16.7927 2.26736 16.3668 1.84173Z" fill="#404040"/>
</svg>
