<svg width="14" height="16" viewBox="0 0 14 16" fill="none" xmlns="http://www.w3.org/2000/svg">
<path d="M4.27208 9.38033C5.68691 8.59391 9.26614 6.6243 12.2644 5.03717M3.65729 7.93261L7.34604 6.48489" stroke="#E5E5E5" stroke-linecap="round"/>
<path d="M0.98735 6.44824L12.6925 4.01215C13.2942 3.88692 13.6658 4.75978 13.2206 5.25245L8.28284 10.7159C8.23759 10.7659 8.1874 10.8103 8.12668 10.8256C7.76261 10.9175 6.96003 10.6424 6.13987 10.2802M0.583344 6.88805C0.978126 7.25434 1.82053 7.93455 2.56457 8.26002C2.85912 8.38886 3.08977 8.70772 3.08928 9.07769C3.0881 9.9858 3.12576 11.135 3.26022 11.78C3.33025 12.116 3.57972 12.0444 3.67957 11.719C3.70401 11.6394 3.7297 11.5545 3.75636 11.4649M3.56544 11.9317L6.13987 10.2802M6.13987 10.2802C5.92584 10.1857 5.71062 10.0853 5.50168 9.98382M3.75636 11.4649L5.80908 10.1528L5.50168 9.98382M3.75636 11.4649C3.79281 11.3425 3.83108 11.2113 3.87045 11.0731M5.50168 9.98382L3.87045 11.0731M5.50168 9.98382C5.38375 9.92657 5.26781 9.86901 5.15522 9.81203M3.87045 11.0731C3.9113 10.9297 3.95333 10.7787 3.99576 10.6218M3.99576 10.6218C4.03257 10.4856 4.06968 10.3451 4.10658 10.2013C4.11536 10.167 4.12601 10.1341 4.13835 10.1026M3.99576 10.6218L5.15522 9.81203M5.15522 9.81203C5.09682 9.78247 5.03931 9.75307 4.98289 9.72395C4.95128 9.70764 4.91919 9.6946 4.88689 9.68469M4.88689 9.68469C4.58718 9.59275 4.26854 9.77013 4.13835 10.1026M4.88689 9.68469L4.13835 10.1026" stroke="white" stroke-linecap="round"/>
</svg>
