<svg width="12" height="11" viewBox="0 0 12 11" fill="none" xmlns="http://www.w3.org/2000/svg">
<path d="M4.33333 3.25C4.33333 4.18198 5.07953 4.9375 6 4.9375C6.92048 4.9375 7.66667 4.18198 7.66667 3.25M1 8.20011V2.80011C1 2.17005 1 1.85479 1.1211 1.61414C1.22763 1.40245 1.39748 1.23048 1.60655 1.12262C1.84423 1 2.15561 1 2.77789 1H9.22233C9.84461 1 10.1553 1 10.393 1.12262C10.6021 1.23048 10.7725 1.40245 10.879 1.61414C11 1.85455 11 2.16943 11 2.79826V8.20201C11 8.83084 11 9.14527 10.879 9.38568C10.7725 9.59737 10.6021 9.76964 10.393 9.8775C10.1556 10 9.845 10 9.22394 10H2.77606C2.155 10 1.844 10 1.60655 9.8775C1.39748 9.76964 1.22763 9.59737 1.1211 9.38568C1 9.14503 1 8.83017 1 8.20011Z" stroke="white" stroke-linecap="round" stroke-linejoin="round"/>
</svg>
