<svg width="16" height="15" viewBox="0 0 16 15" fill="none" xmlns="http://www.w3.org/2000/svg">
<path fill-rule="evenodd" clip-rule="evenodd" d="M8 13.2547L6.84644 13.8463C5.22805 14.6763 4.41885 15.0913 3.82052 14.9831C3.29994 14.8889 2.85075 14.5705 2.59806 14.1167C2.30763 13.595 2.46217 12.716 2.77126 10.9581L2.99157 9.70501L2.05831 8.8176C0.74901 7.5726 0.0943577 6.9501 0.0150026 6.36154C-0.0540402 5.84946 0.117535 5.33434 0.48194 4.95965C0.900773 4.529 1.80548 4.40076 3.61489 4.14427L4.90462 3.96146L5.4814 2.82139C6.2906 1.22194 6.69519 0.42222 7.24448 0.166722C7.72239 -0.0555739 8.27762 -0.0555739 8.75552 0.166722C9.30481 0.42222 9.70941 1.22194 10.5186 2.82139L11.0954 3.96146L12.3851 4.14427C14.1945 4.40076 15.0992 4.529 15.5181 4.95965C15.8825 5.33434 16.054 5.84946 15.985 6.36154C15.9056 6.9501 15.251 7.5726 13.9417 8.8176L13.0084 9.70501L13.2287 10.9581C13.5378 12.716 13.6924 13.595 13.4019 14.1167C13.1492 14.5705 12.7001 14.8889 12.1795 14.9831C11.5811 15.0913 10.772 14.6763 9.15357 13.8463L8 13.2547Z" fill="#22C55E"/>
</svg>
